PathFileType	4	(X/Y/Z)	Patient4_TMGait_0pt2_02_left_11.trc.trc
DataRate	CameraRate	NumFrames	NumMarkers	Units	OrigDataRate	OrigDataStartFrame	OrigNumFrames
42.682926829268	42.682926829268	6	33	mm	42.682926829268	106	       141
Frame#	Time	R.Midfoot.Superior			Sacral			L.Shoulder			Chest			R.Shoulder			Neck			R.ASIS			L.ASIS			R.Thigh.Superior			R.Thigh.Lateral			R.Thigh.Inferior			R.Patella			L.Thigh.Superior			L.Thigh.Lateral			L.Thigh.Inferior			L.Patella			L.Shank.Superior			L.Shank.Lateral			L.Shank.Inferior			R.Shank.Superior			R.Shank.Lateral			R.Shank.Inferior			R.Heel			R.Midfoot.Lateral			R.Toe			L.Heel			L.Midfoot.Lateral			L.Midfoot.Superior			L.Toe			L.Elbow			L.Wrist			R.Elbow			R.Wrist			
		X1	Y1	Z1	X2	Y2	Z2	X3	Y3	Z3	X4	Y4	Z4	X5	Y5	Z5	X6	Y6	Z6	X7	Y7	Z7	X8	Y8	Z8	X9	Y9	Z9	X10	Y10	Z10	X11	Y11	Z11	X12	Y12	Z12	X13	Y13	Z13	X14	Y14	Z14	X15	Y15	Z15	X16	Y16	Z16	X17	Y17	Z17	X18	Y18	Z18	X19	Y19	Z19	X20	Y20	Z20	X21	Y21	Z21	X22	Y22	Z22	X23	Y23	Z23	X24	Y24	Z24	X25	Y25	Z25	X26	Y26	Z26	X27	Y27	Z27	X28	Y28	Z28	X29	Y29	Z29	X30	Y30	Z30	X31	Y31	Z31	X32	Y32	Z32	X33	Y33	Z33	

106	27.760000000000	744.861395298190	95.018636373959	538.474229273932	545.417990178136	988.880755286590	503.594768771913	761.144006355018	1400.891677838742	303.644454571087	847.679089091355	1334.976970521706	474.429758215315	761.328761672491	1427.541770796098	636.010753597235	743.968944185880	1471.572702592928	454.528032493671	776.941588780096	927.022564974511	621.202632792260	759.768047554161	938.593773692957	347.490930705236	832.430762417324	731.949258366325	568.168723421510	764.773431801753	610.258374395662	623.202712123897	837.386805525220	569.442775031582	532.154660113725	844.359444185013	472.405375374999	532.289799856902	837.582641017827	755.180591639018	370.462126702455	788.580327916015	632.250990469122	285.256828930107	889.067369924599	565.200222439973	346.365316371955	898.667233553280	476.799036885217	330.733116750993	830.610057734388	413.524766034294	313.752048868185	687.449696866023	375.543482449914	263.106043672219	678.645388311316	238.670359443170	298.220968952663	797.979713892095	385.355495805666	537.269450149411	716.476626593795	291.247902054350	602.858817152505	731.856513001859	195.619971583648	532.710507865041	570.182446378846	44.146884020957	512.653728351866	657.546041000796	37.230832954846	582.023509958413	865.045775224106	39.461614722333	560.694760307328	491.369266859950	167.863852574472	337.318022048377	542.148429202600	135.284788035549	246.493597746912	649.175185871257	139.318830005725	260.335455023313	723.121473283825	36.063624973676	208.027703049174	761.833625543004	1044.219345696478	198.984751267742	892.151457784828	822.837544634921	208.051645852835	703.653735513258	1097.352585541637	789.721633691286	833.635047082263	872.220065128484	812.713466999209	
107	27.783428571429	740.397431322133	94.960856885919	538.391523889741	544.183789401700	986.410661505048	507.609532944126	757.228747333100	1398.602588568386	305.319734677965	846.680971809717	1332.358243757778	474.586946453207	763.422356990794	1424.851462667456	637.957598395963	743.006678974308	1469.258587497734	456.864463096533	776.945096087569	924.864724982235	622.653908056665	757.040497345513	936.740682547344	349.217757039935	833.153540196080	730.270302290701	568.729294318925	766.635001271376	608.106971708744	623.454885141223	838.854971886427	568.068292163676	531.549797508126	846.135063012563	470.353993136879	531.235728260478	840.263302384591	758.554573559303	374.420383840194	797.173097338613	633.711349611449	288.956034814907	899.168089531140	570.011739529326	351.798001961319	911.515290283266	481.151407918866	335.901096550447	843.802878375392	416.438535275363	318.442609796428	700.464313517440	378.221999589555	267.887393463460	692.164723728917	241.188109322277	302.855706689222	798.376522528786	383.456304716955	536.475381925676	715.902472420174	290.367215071960	602.461217733294	729.323655271628	194.660142387522	532.257587488286	565.659214695148	44.449517936868	512.707323098559	652.971953491856	37.343058396516	582.037920935491	860.473146191207	39.146732089693	560.726266193510	504.935310047715	169.591113763980	341.609122749649	555.890707546927	138.152610499509	250.529113848213	662.983390410383	142.126230694809	264.840230010389	737.124323384031	38.196717142664	211.443401402551	740.925359842611	1040.224331317072	205.118401284342	845.256898920981	804.960544066833	215.058363192519	725.949729350541	1092.573613329747	793.443628576729	877.512634294538	881.744380530267	811.980478302743	
108	27.806857142857	735.933564036206	94.938419135754	538.348402768846	543.011959635292	984.597777448793	511.087203560538	753.428782741072	1397.026246766418	306.859920939568	845.803862099214	1330.365359221811	474.506147583998	765.705691371393	1422.799750835822	639.585472513603	742.140084246796	1467.495915336237	459.013425568184	776.805233450342	923.124722393259	623.786600354858	754.413236305713	935.355223831309	350.660036375229	833.327822209066	728.782563545156	569.194003972714	767.602100122762	606.383537010728	623.675708027134	839.416870447577	566.894609341502	531.045109198673	846.851159425939	468.653954903917	530.370445667807	842.075353246946	761.904833173309	377.927865769728	804.190892794450	635.487943083137	292.313556682605	907.275645941118	574.844155834320	356.804743022977	922.321624929287	485.917789213928	340.814515749442	855.746081433149	419.646802077265	322.891484483056	713.137644486071	379.340057834397	272.198485227212	707.098240555410	242.282904569114	307.241586082876	797.925942008488	381.920415693958	535.837753533735	714.644484796631	289.704845171807	602.174297250392	726.447756671735	193.939974061206	531.932357419518	561.129058220659	44.800962891938	512.767576247519	648.389033357377	37.482281103075	582.061229212358	855.881747112770	38.871782866349	560.757317338596	521.247883299697	167.057561595977	345.322771414144	573.068669770465	137.568685631467	254.232248472689	679.741632182136	143.484906904609	269.272055829345	755.984790216731	40.677771275086	215.330143454533	719.589834876183	1038.271672043087	210.703631207586	797.760398508916	792.334108402365	221.970433767122	749.415018873827	1089.528247229711	796.049648373516	921.621026394521	895.571735487346	808.447829675552	
109	27.830285714286	731.462272746924	94.952972377535	538.348953658292	541.924392620483	983.588379805657	514.091851784247	749.764076088036	1396.279859599801	308.254055968729	845.077703747569	1329.120159938696	474.163341711356	768.224707480061	1421.531966715969	640.847778715825	741.407913038094	1466.397390121423	460.939929408369	776.562401600634	921.897026498535	624.625582549863	751.908830408130	934.590996487314	351.817873905851	832.903646946078	727.555899372395	569.594403817006	767.577844022839	605.172622780254	623.931922742463	838.957663966456	565.970671545741	530.711680060020	846.364674374119	467.364024214012	529.780378135942	842.982982098043	765.205773324909	380.916775559520	809.485398507269	637.535789964250	295.254350000037	913.259113230119	579.573494364029	361.248258880098	930.903730548059	490.995270852927	345.322940243766	866.279060343315	423.094572210866	326.952043209089	725.433359040154	378.865592940775	275.811393994926	723.391205527636	241.988855100183	311.160021522931	796.508483989551	380.815448053532	535.425768300990	712.611516714233	289.289033370026	602.045133525710	723.178459459138	193.493056666244	531.761791052111	556.579122704156	45.200372454449	512.833734152669	643.791138289540	37.649045711172	582.094624336222	851.265790052336	38.634007117179	560.788989213559	540.325673087587	160.537937591653	348.217206735845	593.650990696355	133.655809733397	257.400259631376	699.411908783181	143.338432417374	273.400623763761	779.466128530773	43.353316060894	219.580023862313	698.037530230218	1038.561805568177	215.633465812619	750.740621215366	785.101077674251	228.724913241735	773.763815566571	1088.555513772268	797.516406467612	964.991373750900	913.850505622831	802.097187619639	
110	27.853714285714	726.975214830835	95.002379622621	538.392332292976	540.943487567058	983.447568011328	516.698435161280	746.246979443386	1396.416209916990	309.494267663536	844.515847138676	1328.672074760338	473.538485601655	771.011191259137	1421.117634304874	641.708453150341	740.825982735155	1466.013670826661	462.621138598531	776.261267873576	921.225369769784	625.188933924095	749.537997906031	934.540999796194	352.688150478939	831.872387633988	726.630406737780	569.943667271936	766.542860780104	604.509130988304	624.261625926320	837.443572607696	565.318682045215	530.583856663463	844.626958988686	466.504694512870	529.506356250361	842.996779827527	768.419194671477	383.344824402420	813.015797692775	639.781445490839	297.715189915400	917.111096665341	584.072052759235	365.021121820544	937.211698388024	496.258729430193	349.303612992907	875.319479588535	426.718518558375	330.510833668958	737.354495079882	376.904948651688	278.554095528392	740.892485465808	240.494354230059	314.449594686599	794.084542193244	380.168689777347	535.274497248753	709.772744506605	289.126073238684	602.095295557609	719.495995938098	193.326784393808	531.753210993346	551.998839978573	45.638848889684	512.904298159530	639.173396396557	37.839524970285	582.137665963722	846.621375144383	38.431543364014	560.822096783099	562.014452533785	150.694622228774	350.138224119311	617.390257397555	126.865768603407	259.905646818817	721.760726622891	141.799233964944	277.055737963315	806.976938032811	46.078233214096	224.109223656275	676.515309607576	1041.182790991245	219.834825017685	705.226203342440	783.087131220224	235.267624915800	798.672331898530	1089.874504504288	797.859150878264	1006.674088610874	936.469432927228	793.025709903923	
111	27.877142857143	722.464259091953	95.080846892035	538.472987614703	540.094242906958	984.149812639165	518.981966030384	742.883966677132	1397.417053078828	310.576603497977	844.114876148704	1328.994010982344	472.619634195087	774.073097514542	1421.541879931212	642.146540055314	740.387514447403	1466.328050555514	464.047860906898	775.949271653758	921.097148366003	625.485048756488	747.300099251000	935.219409535297	353.265539563583	830.269549339612	726.010533729475	570.237349460263	764.555152950024	604.375370902119	624.673321107903	834.921664358365	564.930030016672	530.660195137906	841.682680490297	466.056560178576	529.544132391979	842.170454560717	771.487510862243	385.187247681294	814.833576335672	642.123045113686	299.643819724567	918.934277554658	588.210152017586	368.040569793328	941.313543939563	501.561734728511	352.659721468740	882.848055116397	430.444329164655	333.490282997475	748.909462606951	373.680911328831	280.326879466381	759.337782692082	238.107073449704	317.020436303130	790.693515594630	379.963598539672	535.383889360708	706.157893738793	289.198411456956	602.320637306441	715.412394621425	193.421533603006	531.895156622203	547.381807151577	46.098708445354	512.977166431478	634.532593345844	38.045129591033	582.188087778758	841.947231204903	38.263057784936	560.856962374623	585.959053938080	138.477592371661	351.035021612992	643.814152294586	117.896065451743	261.712557866583	746.355041922517	139.120732768349	280.147548305790	837.628314232568	48.727665674713	228.880536052438	655.295409971031	1046.087465045978	223.281030945773	662.119066007984	785.826438289417	241.560999417877	823.797563938451	1093.559824422777	797.122949679890	1045.805654279642	963.050567721655	781.443908776113	
